<svg width="72" height="13" viewBox="0 0 72 13" fill="none" xmlns="http://www.w3.org/2000/svg">
<g style="mix-blend-mode:darken">
<path d="M0.55 11.91C0.99 10.58 1.41 9.275 1.81 7.995C1.98 7.455 2.155 6.89 2.335 6.3C2.515 5.71 2.695 5.125 2.875 4.545C3.055 3.965 3.22 3.405 3.37 2.865C3.53 2.325 3.67 1.825 3.79 1.365C4.34 1.365 4.86 1.335 5.35 1.275C5.84 1.215 6.37 1.16 6.94 1.11C6.91 1.33 6.875 1.58 6.835 1.86C6.805 2.13 6.765 2.415 6.715 2.715C6.675 3.015 6.63 3.325 6.58 3.645C6.53 3.965 6.47 4.375 6.4 4.875C6.33 5.375 6.235 6 6.115 6.75H6.31C6.6 5.99 6.84 5.36 7.03 4.86C7.22 4.35 7.375 3.935 7.495 3.615C7.615 3.295 7.735 2.985 7.855 2.685C7.985 2.375 8.105 2.085 8.215 1.815C8.335 1.535 8.445 1.29 8.545 1.08C8.795 1.06 9.03 1.035 9.25 1.005C9.47 0.974999 9.69 0.944999 9.91 0.915C10.13 0.875 10.35 0.839999 10.57 0.809999C10.8 0.769999 11.05 0.724999 11.32 0.674999C11.22 1.255 11.125 1.85 11.035 2.46C10.945 3.07 10.865 3.68 10.795 4.29C10.725 4.89 10.655 5.485 10.585 6.075C10.525 6.665 10.47 7.225 10.42 7.755C10.3 8.995 10.195 10.205 10.105 11.385L7.495 11.85C7.495 11.8 7.5 11.665 7.51 11.445C7.53 11.225 7.55 10.955 7.57 10.635C7.6 10.315 7.635 9.96 7.675 9.57C7.725 9.18 7.77 8.79 7.81 8.4C7.86 8.01 7.91 7.635 7.96 7.275C8.01 6.905 8.06 6.59 8.11 6.33H7.975C7.835 6.75 7.68 7.195 7.51 7.665C7.34 8.125 7.165 8.595 6.985 9.075C6.815 9.555 6.645 10.025 6.475 10.485C6.305 10.945 6.155 11.385 6.025 11.805C5.675 11.815 5.375 11.83 5.125 11.85C4.875 11.86 4.585 11.875 4.255 11.895L4.735 6.33H4.51C4.49 6.46 4.44 6.68 4.36 6.99C4.28 7.29 4.185 7.64 4.075 8.04C3.975 8.43 3.865 8.84 3.745 9.27C3.625 9.69 3.51 10.085 3.4 10.455C3.3 10.815 3.215 11.115 3.145 11.355C3.075 11.585 3.035 11.715 3.025 11.745L0.55 11.91ZM10.4071 12.015L12.3721 1.35L17.1121 0.944999C17.0421 1.165 16.9821 1.39 16.9321 1.62C16.8821 1.81 16.8321 2.01 16.7821 2.22C16.7421 2.42 16.7071 2.6 16.6771 2.76C16.5771 2.77 16.4321 2.78 16.2421 2.79C16.0621 2.79 15.8671 2.795 15.6571 2.805C15.4471 2.805 15.2321 2.805 15.0121 2.805C14.8021 2.805 14.6171 2.805 14.4571 2.805L13.9321 5.49C14.2421 5.47 14.5321 5.455 14.8021 5.445C15.0221 5.435 15.2471 5.43 15.4771 5.43C15.7071 5.43 15.8771 5.425 15.9871 5.415C15.9471 5.695 15.9071 5.97 15.8671 6.24C15.8371 6.51 15.7971 6.785 15.7471 7.065C15.6471 7.075 15.4821 7.085 15.2521 7.095C15.0321 7.095 14.8071 7.1 14.5771 7.11C14.3171 7.12 14.0321 7.13 13.7221 7.14L13.2121 9.9L15.4021 9.555L15.2521 11.265L10.4071 12.015ZM23.0344 4.335C23.0344 4.855 22.9594 5.41 22.8094 6C22.6594 6.58 22.4494 7.16 22.1794 7.74C21.9094 8.31 21.5744 8.86 21.1744 9.39C20.7844 9.91 20.3394 10.37 19.8394 10.77C19.3394 11.16 18.7894 11.475 18.1894 11.715C17.5994 11.955 16.9694 12.075 16.2994 12.075C16.1594 12.075 16.0194 12.065 15.8794 12.045C15.7394 12.035 15.5994 12.02 15.4594 12C15.7294 10.62 15.9944 9.275 16.2544 7.965C16.3544 7.415 16.4594 6.845 16.5694 6.255C16.6794 5.655 16.7844 5.065 16.8844 4.485C16.9844 3.905 17.0794 3.35 17.1694 2.82C17.2694 2.29 17.3494 1.81 17.4094 1.38C17.8394 1.3 18.2744 1.225 18.7144 1.155C19.1544 1.085 19.6044 1.05 20.0644 1.05C20.6044 1.05 21.0594 1.135 21.4294 1.305C21.8094 1.475 22.1144 1.71 22.3444 2.01C22.5844 2.31 22.7594 2.66 22.8694 3.06C22.9794 3.46 23.0344 3.885 23.0344 4.335ZM19.4944 3.165C19.3844 3.755 19.2694 4.32 19.1494 4.86C19.0294 5.4 18.9094 5.945 18.7894 6.495C18.6694 7.045 18.5494 7.62 18.4294 8.22C18.3094 8.82 18.1944 9.475 18.0844 10.185C18.3244 10.025 18.5544 9.81 18.7744 9.54C19.0044 9.26 19.2194 8.94 19.4194 8.58C19.6194 8.22 19.7994 7.84 19.9594 7.44C20.1294 7.04 20.2744 6.65 20.3944 6.27C20.5144 5.89 20.6044 5.535 20.6644 5.205C20.7344 4.875 20.7694 4.59 20.7694 4.35C20.7694 3.98 20.6644 3.69 20.4544 3.48C20.2544 3.27 19.9344 3.165 19.4944 3.165ZM24.3905 11.7C24.3005 11.7 24.1255 11.715 23.8655 11.745C23.6055 11.765 23.3355 11.795 23.0555 11.835C22.7755 11.865 22.5205 11.895 22.2905 11.925C22.0705 11.955 21.9505 11.975 21.9305 11.985C22.0505 11.555 22.1705 11.08 22.2905 10.56C22.4105 10.03 22.5305 9.48 22.6505 8.91C22.7805 8.33 22.9005 7.745 23.0105 7.155C23.1305 6.565 23.2455 5.995 23.3555 5.445C23.6055 4.165 23.8505 2.85 24.0905 1.5L26.4305 1.125C26.1705 2.465 25.9105 3.78 25.6505 5.07C25.5405 5.62 25.4255 6.19 25.3055 6.78C25.1955 7.37 25.0855 7.955 24.9755 8.535C24.8755 9.115 24.7705 9.68 24.6605 10.23C24.5605 10.77 24.4705 11.26 24.3905 11.7ZM31.4284 8.775C31.1884 9.325 30.9184 9.805 30.6184 10.215C30.3284 10.615 30.0184 10.955 29.6884 11.235C29.3684 11.505 29.0434 11.705 28.7134 11.835C28.3834 11.965 28.0634 12.03 27.7534 12.03C27.4434 12.03 27.1584 11.96 26.8984 11.82C26.6484 11.68 26.4284 11.47 26.2384 11.19C26.0484 10.91 25.8934 10.565 25.7734 10.155C25.6634 9.745 25.6084 9.265 25.6084 8.715C25.6084 7.775 25.7384 6.85 25.9984 5.94C26.2584 5.02 26.6234 4.195 27.0934 3.465C27.5634 2.735 28.1184 2.15 28.7584 1.71C29.4084 1.26 30.1234 1.035 30.9034 1.035C31.1434 1.035 31.3734 1.085 31.5934 1.185C31.8134 1.285 32.0034 1.425 32.1634 1.605C32.3234 1.785 32.4484 2.005 32.5384 2.265C32.6384 2.525 32.6884 2.815 32.6884 3.135C32.6884 3.195 32.6884 3.26 32.6884 3.33C32.6884 3.39 32.6834 3.455 32.6734 3.525L30.7084 4.05C30.5884 3.8 30.4484 3.675 30.2884 3.675C30.1284 3.675 29.9584 3.77 29.7784 3.96C29.6084 4.14 29.4384 4.38 29.2684 4.68C29.0984 4.97 28.9334 5.3 28.7734 5.67C28.6134 6.03 28.4734 6.395 28.3534 6.765C28.2334 7.135 28.1334 7.49 28.0534 7.83C27.9834 8.16 27.9484 8.43 27.9484 8.64C27.9484 8.96 27.9884 9.185 28.0684 9.315C28.1584 9.445 28.2734 9.51 28.4134 9.51C28.5234 9.51 28.6484 9.47 28.7884 9.39C28.9284 9.3 29.0584 9.19 29.1784 9.06C29.2984 8.92 29.4084 8.765 29.5084 8.595C29.6084 8.425 29.6784 8.255 29.7184 8.085L31.4284 8.775ZM33.6044 11.7C33.5144 11.7 33.3394 11.715 33.0794 11.745C32.8194 11.765 32.5494 11.795 32.2694 11.835C31.9894 11.865 31.7344 11.895 31.5044 11.925C31.2844 11.955 31.1644 11.975 31.1444 11.985C31.2644 11.555 31.3844 11.08 31.5044 10.56C31.6244 10.03 31.7444 9.48 31.8644 8.91C31.9944 8.33 32.1144 7.745 32.2244 7.155C32.3444 6.565 32.4594 5.995 32.5694 5.445C32.8194 4.165 33.0644 2.85 33.3044 1.5L35.6444 1.125C35.3844 2.465 35.1244 3.78 34.8644 5.07C34.7544 5.62 34.6394 6.19 34.5194 6.78C34.4094 7.37 34.2994 7.955 34.1894 8.535C34.0894 9.115 33.9844 9.68 33.8744 10.23C33.7744 10.77 33.6844 11.26 33.6044 11.7ZM34.3273 12.075C34.6073 10.665 34.8773 9.29 35.1373 7.95C35.2373 7.39 35.3423 6.805 35.4523 6.195C35.5723 5.575 35.6823 4.97 35.7823 4.38C35.8823 3.78 35.9723 3.205 36.0523 2.655C36.1423 2.095 36.2123 1.585 36.2623 1.125C36.5723 1.105 36.8723 1.085 37.1623 1.065C37.4223 1.045 37.6873 1.03 37.9573 1.02C38.2273 0.999999 38.4673 0.979999 38.6773 0.959999C38.8073 1.73 38.9223 2.465 39.0223 3.165C39.0723 3.465 39.1223 3.78 39.1723 4.11C39.2323 4.43 39.2873 4.74 39.3373 5.04C39.3873 5.34 39.4373 5.63 39.4873 5.91C39.5373 6.18 39.5873 6.42 39.6373 6.63C39.6773 6.42 39.7223 6.18 39.7723 5.91C39.8223 5.63 39.8773 5.34 39.9373 5.04C39.9973 4.73 40.0573 4.415 40.1173 4.095C40.1873 3.775 40.2523 3.465 40.3123 3.165C40.4623 2.465 40.6173 1.735 40.7773 0.975L42.6073 0.749999C42.2673 2.25 41.9673 3.67 41.7073 5.01C41.5873 5.59 41.4673 6.175 41.3473 6.765C41.2373 7.355 41.1323 7.925 41.0323 8.475C40.9323 9.025 40.8473 9.535 40.7773 10.005C40.7073 10.465 40.6523 10.855 40.6123 11.175C40.5823 11.175 40.4623 11.2 40.2523 11.25C40.0523 11.29 39.8173 11.34 39.5473 11.4C39.2873 11.46 39.0223 11.525 38.7523 11.595C38.4923 11.655 38.2973 11.705 38.1673 11.745C38.0973 10.935 38.0223 10.165 37.9423 9.435C37.9123 9.125 37.8773 8.805 37.8373 8.475C37.7973 8.145 37.7573 7.83 37.7173 7.53C37.6873 7.23 37.6523 6.95 37.6123 6.69C37.5823 6.42 37.5523 6.195 37.5223 6.015C37.4923 6.195 37.4523 6.415 37.4023 6.675C37.3523 6.935 37.3023 7.215 37.2523 7.515C37.2023 7.805 37.1523 8.11 37.1023 8.43C37.0523 8.74 36.9973 9.045 36.9373 9.345C36.8073 10.055 36.6673 10.795 36.5173 11.565L34.3273 12.075ZM41.1542 12.015L43.1192 1.35L47.8592 0.944999C47.7892 1.165 47.7292 1.39 47.6792 1.62C47.6292 1.81 47.5792 2.01 47.5292 2.22C47.4892 2.42 47.4542 2.6 47.4242 2.76C47.3242 2.77 47.1792 2.78 46.9892 2.79C46.8092 2.79 46.6142 2.795 46.4042 2.805C46.1942 2.805 45.9792 2.805 45.7592 2.805C45.5492 2.805 45.3642 2.805 45.2042 2.805L44.6792 5.49C44.9892 5.47 45.2792 5.455 45.5492 5.445C45.7692 5.435 45.9942 5.43 46.2242 5.43C46.4542 5.43 46.6242 5.425 46.7342 5.415C46.6942 5.695 46.6542 5.97 46.6142 6.24C46.5842 6.51 46.5442 6.785 46.4942 7.065C46.3942 7.075 46.2292 7.085 45.9992 7.095C45.7792 7.095 45.5542 7.1 45.3242 7.11C45.0642 7.12 44.7792 7.13 44.4692 7.14L43.9592 9.9L46.1492 9.555L45.9992 11.265L41.1542 12.015Z" fill="white"/>
<path d="M50.2865 11.52C49.9765 11.52 49.6465 11.53 49.2965 11.55C48.9565 11.57 48.6115 11.6 48.2615 11.64C47.9115 11.68 47.5665 11.735 47.2265 11.805C46.8965 11.865 46.5965 11.94 46.3265 12.03C46.3865 11.58 46.4565 11.08 46.5365 10.53C46.6165 9.98 46.7065 9.41 46.8065 8.82C46.9165 8.23 47.0215 7.635 47.1215 7.035C47.2315 6.435 47.3415 5.86 47.4515 5.31C47.7015 4 47.9665 2.665 48.2465 1.305L50.8715 0.959999C50.6015 2.12 50.3415 3.25 50.0915 4.35C49.9815 4.82 49.8715 5.31 49.7615 5.82C49.6515 6.32 49.5465 6.81 49.4465 7.29C49.3465 7.77 49.2565 8.235 49.1765 8.685C49.0965 9.135 49.0315 9.535 48.9815 9.885C49.2315 9.865 49.4965 9.855 49.7765 9.855C50.0665 9.845 50.3215 9.84 50.5415 9.84C50.5515 10.03 50.5665 10.22 50.5865 10.41C50.6065 10.59 50.6265 10.755 50.6465 10.905C50.6765 11.055 50.6965 11.19 50.7065 11.31C50.7265 11.42 50.7415 11.495 50.7515 11.535C50.6715 11.535 50.5915 11.535 50.5115 11.535C50.4415 11.525 50.3665 11.52 50.2865 11.52ZM56.1929 11.7C55.9429 11.74 55.6679 11.785 55.3679 11.835C55.0679 11.885 54.7979 11.93 54.5579 11.97C54.5979 11.64 54.6379 11.315 54.6779 10.995C54.7079 10.715 54.7329 10.435 54.7529 10.155C54.7829 9.875 54.8079 9.635 54.8279 9.435H53.5229L52.9229 11.595C52.7029 11.625 52.4429 11.66 52.1429 11.7C51.8429 11.73 51.5629 11.76 51.3029 11.79C50.9829 11.83 50.6679 11.87 50.3579 11.91C50.7579 10.58 51.1529 9.27 51.5429 7.98C51.7029 7.44 51.8679 6.875 52.0379 6.285C52.2179 5.695 52.3929 5.11 52.5629 4.53C52.7429 3.94 52.9129 3.375 53.0729 2.835C53.2329 2.295 53.3729 1.8 53.4929 1.35C54.1729 1.3 54.8629 1.24 55.5629 1.17C56.2729 1.1 56.9629 1.005 57.6329 0.884999C57.6029 1.205 57.5679 1.605 57.5279 2.085C57.4979 2.555 57.4679 3.07 57.4379 3.63C57.4079 4.19 57.3779 4.775 57.3479 5.385C57.3179 5.995 57.2879 6.595 57.2579 7.185C57.2079 8.565 57.1529 10.03 57.0929 11.58C56.7929 11.63 56.4929 11.67 56.1929 11.7ZM53.8829 7.935C53.9229 7.935 53.9929 7.935 54.0929 7.935C54.2029 7.925 54.3129 7.92 54.4229 7.92C54.5429 7.91 54.6529 7.905 54.7529 7.905C54.8529 7.895 54.9229 7.885 54.9629 7.875C54.9629 7.815 54.9679 7.715 54.9779 7.575C54.9979 7.425 55.0129 7.26 55.0229 7.08C55.0429 6.89 55.0629 6.685 55.0829 6.465C55.1029 6.245 55.1229 6.03 55.1429 5.82C55.1829 5.31 55.2329 4.76 55.2929 4.17L55.3829 2.865L55.1579 2.88L54.8129 4.17L53.8829 7.935ZM57.2521 12.075C57.5321 10.665 57.8021 9.29 58.0621 7.95C58.1621 7.39 58.2671 6.805 58.3771 6.195C58.4971 5.575 58.6071 4.97 58.7071 4.38C58.8071 3.78 58.8971 3.205 58.9771 2.655C59.0671 2.095 59.1371 1.585 59.1871 1.125C59.4971 1.105 59.7971 1.085 60.0871 1.065C60.3471 1.045 60.6121 1.03 60.8821 1.02C61.1521 0.999999 61.3921 0.979999 61.6021 0.959999C61.7321 1.73 61.8471 2.465 61.9471 3.165C61.9971 3.465 62.0471 3.78 62.0971 4.11C62.1571 4.43 62.2121 4.74 62.2621 5.04C62.3121 5.34 62.3621 5.63 62.4121 5.91C62.4621 6.18 62.5121 6.42 62.5621 6.63C62.6021 6.42 62.6471 6.18 62.6971 5.91C62.7471 5.63 62.8021 5.34 62.8621 5.04C62.9221 4.73 62.9821 4.415 63.0421 4.095C63.1121 3.775 63.1771 3.465 63.2371 3.165C63.3871 2.465 63.5421 1.735 63.7021 0.975L65.5321 0.749999C65.1921 2.25 64.8921 3.67 64.6321 5.01C64.5121 5.59 64.3921 6.175 64.2721 6.765C64.1621 7.355 64.0571 7.925 63.9571 8.475C63.8571 9.025 63.7721 9.535 63.7021 10.005C63.6321 10.465 63.5771 10.855 63.5371 11.175C63.5071 11.175 63.3871 11.2 63.1771 11.25C62.9771 11.29 62.7421 11.34 62.4721 11.4C62.2121 11.46 61.9471 11.525 61.6771 11.595C61.4171 11.655 61.2221 11.705 61.0921 11.745C61.0221 10.935 60.9471 10.165 60.8671 9.435C60.8371 9.125 60.8021 8.805 60.7621 8.475C60.7221 8.145 60.6821 7.83 60.6421 7.53C60.6121 7.23 60.5771 6.95 60.5371 6.69C60.5071 6.42 60.4771 6.195 60.4471 6.015C60.4171 6.195 60.3771 6.415 60.3271 6.675C60.2771 6.935 60.2271 7.215 60.1771 7.515C60.1271 7.805 60.0771 8.11 60.0271 8.43C59.9771 8.74 59.9221 9.045 59.8621 9.345C59.7321 10.055 59.5921 10.795 59.4421 11.565L57.2521 12.075ZM71.594 4.335C71.594 4.855 71.519 5.41 71.369 6C71.219 6.58 71.009 7.16 70.739 7.74C70.469 8.31 70.134 8.86 69.734 9.39C69.344 9.91 68.899 10.37 68.399 10.77C67.899 11.16 67.349 11.475 66.749 11.715C66.159 11.955 65.529 12.075 64.859 12.075C64.719 12.075 64.579 12.065 64.439 12.045C64.299 12.035 64.159 12.02 64.019 12C64.289 10.62 64.554 9.275 64.814 7.965C64.914 7.415 65.019 6.845 65.129 6.255C65.239 5.655 65.344 5.065 65.444 4.485C65.544 3.905 65.639 3.35 65.729 2.82C65.829 2.29 65.909 1.81 65.969 1.38C66.399 1.3 66.834 1.225 67.274 1.155C67.714 1.085 68.164 1.05 68.624 1.05C69.164 1.05 69.619 1.135 69.989 1.305C70.369 1.475 70.674 1.71 70.904 2.01C71.144 2.31 71.319 2.66 71.429 3.06C71.539 3.46 71.594 3.885 71.594 4.335ZM68.054 3.165C67.944 3.755 67.829 4.32 67.709 4.86C67.589 5.4 67.469 5.945 67.349 6.495C67.229 7.045 67.109 7.62 66.989 8.22C66.869 8.82 66.754 9.475 66.644 10.185C66.884 10.025 67.114 9.81 67.334 9.54C67.564 9.26 67.779 8.94 67.979 8.58C68.179 8.22 68.359 7.84 68.519 7.44C68.689 7.04 68.834 6.65 68.954 6.27C69.074 5.89 69.164 5.535 69.224 5.205C69.294 4.875 69.329 4.59 69.329 4.35C69.329 3.98 69.224 3.69 69.014 3.48C68.814 3.27 68.494 3.165 68.054 3.165Z" fill="#ECD612"/>
</g>
</svg>
